<?xml version="1.0" encoding="utf-8"?>
<!-- Generator: Adobe Illustrator 25.4.1, SVG Export Plug-In . SVG Version: 6.00 Build 0)  -->
<svg version="1.1" xmlns="http://www.w3.org/2000/svg" xmlns:xlink="http://www.w3.org/1999/xlink" x="0px" y="0px"
	 viewBox="0 0 1200 1200" style="enable-background:new 0 0 1200 1200;" xml:space="preserve">
<style type="text/css">
	.st0{fill:none;stroke:url(#SVGID_1_);stroke-width:16;stroke-miterlimit:10;stroke-opacity:0.92;}
	
		.st1{fill:none;stroke:url(#SVGID_00000107569313331952754920000008057357145659866551_);stroke-width:11;stroke-miterlimit:10;stroke-opacity:0.96;}
	.st2{clip-path:url(#SVGID_00000172438792796572342300000003779868163727590299_);}
	.st3{fill:url(#SVGID_00000047041242858535121150000003229459869780489359_);}
	.st4{fill:url(#SVGID_00000010311613277702526300000016602688435686057123_);}
	.st5{display:none;}
	.st6{display:inline;fill:#FFFFFF;}
	.st7{fill:url(#SVGID_00000025430681107462363450000000634532277325651076_);}
	.st8{fill:url(#SVGID_00000116218161018530331520000014954890951713117613_);}
	.st9{fill:url(#SVGID_00000150782772701464133650000005970629241253619884_);}
	.st10{fill:url(#SVGID_00000005967539049650673840000005653439422643521451_);}
	.st11{fill:url(#SVGID_00000109736185622438090730000017490115285517216948_);}
	.st12{fill:url(#SVGID_00000088113143795596190260000012621372968367515786_);}
	.st13{fill:url(#SVGID_00000073700933536333922110000013535373833453877927_);}
	.st14{fill:url(#SVGID_00000153698213795856383450000011895014253554417319_);}
	.st15{fill:url(#SVGID_00000109013732126147992010000006262373713996172161_);}
	.st16{fill:url(#SVGID_00000136386138019253797530000003637418415400521384_);}
</style>
<g id="Layer_6">
</g>
<g id="Layer_1">
</g>
<g id="Layer_2">
	<g id="Layer_8">
	</g>
	<linearGradient id="SVGID_1_" gradientUnits="userSpaceOnUse" x1="276.5" y1="563.25" x2="923" y2="563.25">
		<stop  offset="0" style="stop-color:#875D4A"/>
		<stop  offset="0.0871" style="stop-color:#8B624F"/>
		<stop  offset="0.1869" style="stop-color:#986F5D"/>
		<stop  offset="0.2929" style="stop-color:#AC8674"/>
		<stop  offset="0.4025" style="stop-color:#C9A593"/>
		<stop  offset="0.4916" style="stop-color:#E5C4B3"/>
		<stop  offset="0.6191" style="stop-color:#C9A593"/>
		<stop  offset="0.7782" style="stop-color:#AB8473"/>
		<stop  offset="0.9109" style="stop-color:#99705E"/>
		<stop  offset="1" style="stop-color:#926957"/>
	</linearGradient>
	<circle class="st0" cx="599.75" cy="563.25" r="315.25"/>
	
		<linearGradient id="SVGID_00000078746399420466759060000016925689719323187871_" gradientUnits="userSpaceOnUse" x1="803.8299" y1="767.3299" x2="396.1701" y2="359.6701">
		<stop  offset="5.586592e-03" style="stop-color:#875D4A"/>
		<stop  offset="0.0737" style="stop-color:#976E5B"/>
		<stop  offset="0.2824" style="stop-color:#C39F8C"/>
		<stop  offset="0.4413" style="stop-color:#DFBDAB"/>
		<stop  offset="0.5307" style="stop-color:#E9C8B6"/>
		<stop  offset="0.6194" style="stop-color:#E5C4B2"/>
		<stop  offset="0.7103" style="stop-color:#DAB8A6"/>
		<stop  offset="0.8022" style="stop-color:#C8A391"/>
		<stop  offset="0.8948" style="stop-color:#AD8774"/>
		<stop  offset="0.9871" style="stop-color:#8C6350"/>
		<stop  offset="1" style="stop-color:#875D4A"/>
	</linearGradient>
	
		<ellipse style="fill:none;stroke:url(#SVGID_00000078746399420466759060000016925689719323187871_);stroke-width:11;stroke-miterlimit:10;stroke-opacity:0.96;" cx="600" cy="563.5" rx="280.5" ry="285"/>
</g>
<g id="Layer_3">
	<g>
		<defs>
			<polygon id="SVGID_00000165213291075225937980000014925301944977876885_" points="390,518 833.57,518 834,571 390,571 340,694 
				856.38,683.55 865,416 340,421.98 			"/>
		</defs>
		<clipPath id="SVGID_00000173857369735164775630000012188753930602923904_">
			<use xlink:href="#SVGID_00000165213291075225937980000014925301944977876885_"  style="overflow:visible;"/>
		</clipPath>
		<g style="clip-path:url(#SVGID_00000173857369735164775630000012188753930602923904_);">
			
				<linearGradient id="SVGID_00000180353531101795360070000015399705693107222698_" gradientUnits="userSpaceOnUse" x1="523.267" y1="785.9587" x2="458.6371" y2="456.0059">
				<stop  offset="0" style="stop-color:#875D4A"/>
				<stop  offset="0.1596" style="stop-color:#8C6350"/>
				<stop  offset="0.3635" style="stop-color:#9A725F"/>
				<stop  offset="0.5915" style="stop-color:#B28C7A"/>
				<stop  offset="0.8351" style="stop-color:#D3B09E"/>
				<stop  offset="0.9744" style="stop-color:#E9C8B6"/>
			</linearGradient>
			<path style="fill:url(#SVGID_00000180353531101795360070000015399705693107222698_);" d="M615,668l1,4l-109,1v-5h29
				c0,0-66.91-86.69-73-94c-8.54-10.25-9.65-14.98-16-14l1,108h30l-0.24,5L371,672.72V668c-0.65-0.59,30,0,30,0l1-221h-31v-5h106v5
				h-28l-1,105l98-106h-30v-4l70,0.11V446l-29,1c0,0-49.97,55.5-67,72c27.1,33.45,64.52,96.41,83,119c7.57,9.25,23,29,23,29
				 M507,668v4.18"/>
			
				<linearGradient id="SVGID_00000103973983521518319250000003115776951091581365_" gradientUnits="userSpaceOnUse" x1="625.9297" y1="557.4301" x2="824" y2="557.4301">
				<stop  offset="0" style="stop-color:#E9C8B6"/>
				<stop  offset="0.6419" style="stop-color:#875D4A"/>
			</linearGradient>
			<path style="fill:url(#SVGID_00000103973983521518319250000003115776951091581365_);" d="M824,603l-1,69l-4.27,0.61
				c0,0-0.73-6.61-7.73-6.61c-14.89,0-46.68,12.75-63.33,11.9C701.62,675.54,669,654,651,631c-16.27-20.79-26-43-25-78
				c1.69-58.98,57.64-129.1,141-114c15.17,2.75,34.72,10.86,44,9c5-1,5-6,5-6h6v66h-4c-12-40-31.21-66-71-66
				c-62.26,0-68.54,45.94-70,106c-0.7,28.78-2.5,78.54,21,104c12,13,24.99,17.54,41,20c39,6,65.52-20.85,80-69H824z"/>
		</g>
	</g>
</g>
<g id="Layer_7">
</g>
<g id="Layer_5" class="st5">
	<rect x="386" y="521" class="st6" width="406" height="52"/>
</g>
<g id="Layer_4">
	<g>
		<g>
			<path d="M403.23,563.42l3.59-0.76c0.38-0.09,0.69-0.29,0.95-0.59c0.25-0.3,0.38-0.65,0.38-1.06v-31.14
				c0-0.43-0.13-0.79-0.38-1.09c-0.25-0.3-0.57-0.49-0.95-0.59l-3.59-0.73v-1.32h14.93v1.32l-3.56,0.73
				c-0.38,0.09-0.7,0.29-0.96,0.6c-0.26,0.31-0.4,0.67-0.4,1.08v16.16l16.4-17.78l-4.04-0.78v-1.32h11.51v1.32l-2.88,0.78
				c-0.43,0.13-0.92,0.38-1.47,0.76c-0.55,0.37-1.03,0.77-1.44,1.2l-11.4,11.98l13.77,18.28c0.19,0.24,0.4,0.49,0.62,0.74
				c0.23,0.25,0.45,0.48,0.68,0.69c0.23,0.21,0.45,0.39,0.68,0.55c0.23,0.16,0.44,0.27,0.65,0.32l2.6,0.64v1.32h-14.08v-1.32
				l4.3-0.81l-12.64-16.91l-3.25,3.16v12.15c0,0.43,0.13,0.79,0.38,1.08c0.25,0.29,0.58,0.48,0.98,0.57l3.56,0.76v1.32h-14.93
				V563.42z"/>
			<path d="M458.59,565.6c-2.88,0-5.44-0.5-7.66-1.5c-2.23-1-4.1-2.39-5.63-4.17c-1.53-1.78-2.69-3.91-3.48-6.38
				c-0.79-2.47-1.19-5.18-1.19-8.13c0-2.8,0.41-5.42,1.23-7.87c0.82-2.45,2-4.58,3.55-6.4c1.55-1.82,3.43-3.25,5.66-4.3
				s4.75-1.57,7.58-1.57c3.05,0,5.71,0.54,7.96,1.61c2.25,1.07,4.12,2.52,5.6,4.35c1.48,1.83,2.58,3.96,3.31,6.4
				c0.73,2.44,1.09,5.03,1.09,7.77c0,1.62-0.15,3.25-0.45,4.87c-0.3,1.62-0.77,3.18-1.4,4.68c-0.63,1.49-1.43,2.89-2.4,4.19
				c-0.97,1.3-2.13,2.42-3.46,3.37c-1.34,0.95-2.86,1.7-4.57,2.25C462.61,565.32,460.7,565.6,458.59,565.6z M459.13,563.58
				c1.98,0,3.71-0.44,5.19-1.33c1.48-0.89,2.71-2.1,3.7-3.65s1.73-3.37,2.23-5.47s0.75-4.36,0.75-6.79c0-2.8-0.26-5.37-0.78-7.7
				c-0.52-2.33-1.31-4.34-2.38-6.02c-1.07-1.68-2.41-2.99-4.03-3.92c-1.62-0.93-3.54-1.4-5.74-1.4c-2.09,0-3.89,0.48-5.39,1.43
				c-1.5,0.95-2.72,2.22-3.68,3.79c-0.95,1.58-1.65,3.4-2.09,5.46s-0.66,4.21-0.66,6.45c0,2.74,0.25,5.28,0.76,7.62
				c0.51,2.33,1.29,4.35,2.35,6.06c1.06,1.71,2.39,3.05,4,4.02C454.99,563.1,456.9,563.58,459.13,563.58z"/>
			<path d="M482.4,529.82c-0.15-0.35-0.37-0.7-0.65-1.04s-0.62-0.55-1.02-0.64l-2.6-0.67v-1.32h13.89v1.32l-4.86,0.92l10.21,26.01
				l1.44,3.86l11.11-29.76l-4.81-1.04v-1.32h11v1.32l-2.43,0.67c-0.38,0.09-0.71,0.31-1,0.64c-0.29,0.34-0.51,0.68-0.67,1.04
				l-11.31,29.12l-3.22,6.36h-1.1L482.4,529.82z"/>
			<path d="M517.31,563.42l3.59-0.76c0.38-0.09,0.69-0.29,0.95-0.59c0.25-0.3,0.38-0.65,0.38-1.06v-31.14
				c0-0.43-0.13-0.79-0.38-1.09c-0.25-0.3-0.57-0.49-0.95-0.59l-3.59-0.73v-1.32h28.39v9.04h-1.58l-2.01-5.96
				c-0.09-0.28-0.23-0.51-0.4-0.7c-0.17-0.19-0.42-0.28-0.76-0.28h-13.63v15.32h8.94c0.38,0,0.65-0.08,0.82-0.25
				c0.17-0.17,0.3-0.38,0.4-0.64l1.61-4.59h1.39v13.13h-1.39l-1.61-4.54c-0.09-0.3-0.23-0.54-0.4-0.71
				c-0.17-0.18-0.44-0.27-0.82-0.27h-8.94v16.91h16.06c0.34,0,0.59-0.09,0.76-0.27c0.17-0.18,0.3-0.42,0.4-0.71l1.89-6.75h1.58v9.86
				h-30.71V563.42z"/>
			<path d="M549.18,563.42l2.43-0.7c0.38-0.11,0.71-0.32,1-0.63c0.29-0.31,0.51-0.65,0.66-1.02L564.51,532l3.42-6.44h1.1l13.86,35.5
				c0.15,0.37,0.37,0.71,0.66,1.02s0.63,0.52,1,0.63l2.43,0.7v1.32h-13.77v-1.32l4.92-0.92l-4.69-12.1h-13.69l-4.38,11.98l4.81,1.04
				v1.32h-11V563.42z M572.57,548.27l-4.64-11.82l-1.41-3.78h-0.03l-5.85,15.6H572.57z"/>
			<path d="M587.97,563.42l3.59-0.76c0.38-0.09,0.69-0.29,0.95-0.59c0.26-0.3,0.38-0.65,0.38-1.06v-31.14
				c0-0.43-0.13-0.79-0.38-1.09c-0.25-0.3-0.57-0.49-0.95-0.59l-3.59-0.73v-1.32h15.13v1.32l-3.76,0.73
				c-0.38,0.07-0.7,0.27-0.96,0.59c-0.27,0.32-0.4,0.68-0.4,1.09v32.73h14.31c0.19,0,0.35-0.05,0.49-0.15
				c0.14-0.1,0.26-0.23,0.35-0.39c0.09-0.16,0.17-0.32,0.23-0.49s0.1-0.32,0.14-0.45l2.15-7.39h1.5v11h-29.19V563.42z"/>
			<path d="M668.61,557.2v2.35c-0.77,0.65-1.67,1.33-2.69,2.03c-1.02,0.7-2.13,1.34-3.32,1.93c-1.2,0.59-2.46,1.07-3.8,1.46
				c-1.34,0.38-2.71,0.57-4.1,0.57c-2.85,0-5.42-0.46-7.71-1.39c-2.29-0.92-4.25-2.25-5.87-3.98c-1.62-1.73-2.87-3.83-3.75-6.3
				c-0.88-2.47-1.32-5.26-1.32-8.36c0-2.99,0.48-5.72,1.43-8.2c0.95-2.48,2.27-4.61,3.95-6.38c1.68-1.77,3.65-3.15,5.92-4.13
				c2.27-0.98,4.74-1.47,7.4-1.47c0.92,0,1.94,0.07,3.05,0.2c1.11,0.13,2.22,0.3,3.34,0.5c1.11,0.21,2.18,0.44,3.2,0.7
				c1.02,0.26,1.9,0.52,2.66,0.78v8.93h-1.5l-1.81-4.9c-0.09-0.35-0.25-0.62-0.45-0.78c-0.21-0.17-0.44-0.33-0.71-0.48
				c-0.6-0.34-1.28-0.65-2.04-0.95c-0.75-0.3-1.55-0.56-2.38-0.8s-1.66-0.42-2.5-0.55c-0.84-0.13-1.64-0.2-2.42-0.2
				c-1.68,0-3.22,0.35-4.64,1.05c-1.41,0.7-2.63,1.75-3.65,3.15c-1.02,1.4-1.81,3.15-2.38,5.25s-0.85,4.55-0.85,7.35
				c0,5.84,1.25,10.23,3.76,13.16c2.51,2.93,6.1,4.4,10.77,4.4c1.55,0,2.92-0.16,4.13-0.49c1.21-0.33,2.29-0.74,3.25-1.23
				c0.96-0.49,1.81-1.03,2.53-1.61c0.73-0.58,1.38-1.12,1.97-1.62H668.61z"/>
			<path d="M671.97,563.42l3.59-0.76c0.38-0.09,0.69-0.29,0.95-0.59c0.25-0.3,0.38-0.65,0.38-1.06v-31.14
				c0-0.43-0.13-0.79-0.38-1.09c-0.25-0.3-0.57-0.49-0.95-0.59l-3.59-0.73v-1.32h15.13v1.32l-3.76,0.73
				c-0.38,0.07-0.7,0.27-0.96,0.59c-0.26,0.32-0.4,0.68-0.4,1.09v32.73h14.31c0.19,0,0.35-0.05,0.49-0.15
				c0.14-0.1,0.26-0.23,0.35-0.39s0.17-0.32,0.23-0.49s0.1-0.32,0.14-0.45l2.15-7.39h1.5v11h-29.18V563.42z"/>
			<path d="M706.07,529.87c0-0.43-0.13-0.79-0.4-1.09c-0.26-0.3-0.58-0.49-0.96-0.59l-3.59-0.73v-1.32h14.96v1.32l-3.59,0.73
				c-0.38,0.09-0.69,0.29-0.95,0.6c-0.25,0.31-0.38,0.67-0.38,1.08v22.88c0,0.65,0.05,1.36,0.16,2.11c0.1,0.76,0.29,1.5,0.57,2.24
				s0.65,1.45,1.12,2.13c0.47,0.68,1.08,1.29,1.82,1.82c0.74,0.53,1.64,0.95,2.7,1.26s2.29,0.46,3.71,0.46
				c1.43,0,2.69-0.16,3.78-0.48c1.08-0.32,2.02-0.74,2.81-1.27c0.79-0.53,1.45-1.14,1.98-1.82c0.53-0.68,0.95-1.39,1.27-2.13
				c0.32-0.74,0.55-1.47,0.68-2.21c0.13-0.74,0.2-1.42,0.2-2.06v-22.76c0-0.43-0.13-0.79-0.38-1.08c-0.25-0.29-0.57-0.48-0.95-0.57
				l-3.59-0.92v-1.32h12.27v1.32l-3.59,0.92c-0.38,0.09-0.69,0.29-0.95,0.59c-0.25,0.3-0.38,0.65-0.38,1.06v23.1
				c0,1.51-0.22,2.87-0.65,4.06c-0.43,1.19-1.02,2.25-1.75,3.18s-1.58,1.72-2.54,2.38c-0.96,0.66-1.97,1.2-3.01,1.62
				c-1.05,0.42-2.1,0.73-3.15,0.92c-1.06,0.2-2.05,0.29-2.97,0.29c-2.34,0-4.39-0.31-6.17-0.94c-1.77-0.63-3.26-1.47-4.45-2.52
				s-2.1-2.26-2.7-3.63c-0.6-1.36-0.91-2.77-0.91-4.23V529.87z"/>
			<path d="M742.34,563.42l3.59-0.76c0.38-0.09,0.69-0.29,0.95-0.59c0.25-0.3,0.38-0.65,0.38-1.06v-31.14
				c0-0.43-0.13-0.79-0.38-1.09c-0.25-0.3-0.57-0.49-0.95-0.59l-3.59-0.73v-1.32h14.08c2.83,0,5.15,0.24,6.97,0.71
				s3.25,1.11,4.28,1.9s1.75,1.7,2.15,2.73c0.4,1.03,0.59,2.09,0.59,3.19c0,1.21-0.2,2.33-0.59,3.36c-0.4,1.03-0.96,1.95-1.7,2.77
				c-0.74,0.82-1.62,1.53-2.66,2.11c-1.04,0.59-2.19,1.05-3.45,1.39c1.51,0.06,2.93,0.31,4.26,0.77c1.33,0.46,2.49,1.08,3.48,1.88
				c0.99,0.79,1.77,1.75,2.35,2.87s0.86,2.38,0.86,3.78c0,1.48-0.21,2.77-0.64,3.89c-0.42,1.12-1.01,2.09-1.75,2.91
				c-0.75,0.82-1.62,1.51-2.63,2.06c-1.01,0.55-2.09,0.99-3.25,1.33s-2.37,0.57-3.63,0.71c-1.26,0.14-2.53,0.21-3.79,0.21h-14.93
				V563.42z M754.93,543.93c1.88,0,3.47-0.17,4.76-0.5s2.33-0.82,3.12-1.44c0.79-0.62,1.36-1.39,1.71-2.3
				c0.35-0.91,0.52-1.93,0.52-3.07c0-1.49-0.19-2.77-0.58-3.84c-0.39-1.06-0.97-1.94-1.74-2.62c-0.77-0.68-1.74-1.18-2.9-1.5
				s-2.51-0.48-4.06-0.48h-3.42v15.74H754.93z M758.32,562.66c3.02,0,5.28-0.62,6.79-1.85c1.51-1.23,2.26-3.25,2.26-6.05
				c0-1.64-0.21-3.03-0.62-4.16c-0.41-1.13-1.06-2.04-1.92-2.74c-0.87-0.7-1.97-1.21-3.32-1.53c-1.35-0.32-2.95-0.48-4.79-0.48
				h-4.36v16.8H758.32z"/>
		</g>
		<g>
			
				<radialGradient id="SVGID_00000108281634277282593680000003393502014251116442_" cx="582.684" cy="605.6712" r="199.7269" gradientUnits="userSpaceOnUse">
				<stop  offset="0.1397" style="stop-color:#D1B3A3"/>
				<stop  offset="0.7792" style="stop-color:#9D7564"/>
			</radialGradient>
			<path style="fill:url(#SVGID_00000108281634277282593680000003393502014251116442_);" d="M403.23,563.42l3.59-0.76
				c0.38-0.09,0.69-0.29,0.95-0.59c0.25-0.3,0.38-0.65,0.38-1.06v-31.14c0-0.43-0.13-0.79-0.38-1.09c-0.25-0.3-0.57-0.49-0.95-0.59
				l-3.59-0.73v-1.32h14.93v1.32l-3.56,0.73c-0.38,0.09-0.7,0.29-0.96,0.6c-0.26,0.31-0.4,0.67-0.4,1.08v16.16l16.4-17.78
				l-4.04-0.78v-1.32h11.51v1.32l-2.88,0.78c-0.43,0.13-0.92,0.38-1.47,0.76c-0.55,0.37-1.03,0.77-1.44,1.2l-11.4,11.98l13.77,18.28
				c0.19,0.24,0.4,0.49,0.62,0.74c0.23,0.25,0.45,0.48,0.68,0.69c0.23,0.21,0.45,0.39,0.68,0.55c0.23,0.16,0.44,0.27,0.65,0.32
				l2.6,0.64v1.32h-14.08v-1.32l4.3-0.81l-12.64-16.91l-3.25,3.16v12.15c0,0.43,0.13,0.79,0.38,1.08c0.25,0.29,0.58,0.48,0.98,0.57
				l3.56,0.76v1.32h-14.93V563.42z"/>
			
				<radialGradient id="SVGID_00000103230446761419014220000016102282774016640682_" cx="582.684" cy="605.6712" r="199.7269" gradientUnits="userSpaceOnUse">
				<stop  offset="0.1397" style="stop-color:#D1B3A3"/>
				<stop  offset="0.7792" style="stop-color:#9D7564"/>
			</radialGradient>
			<path style="fill:url(#SVGID_00000103230446761419014220000016102282774016640682_);" d="M458.59,565.6
				c-2.88,0-5.44-0.5-7.66-1.5c-2.23-1-4.1-2.39-5.63-4.17c-1.53-1.78-2.69-3.91-3.48-6.38c-0.79-2.47-1.19-5.18-1.19-8.13
				c0-2.8,0.41-5.42,1.23-7.87c0.82-2.45,2-4.58,3.55-6.4c1.55-1.82,3.43-3.25,5.66-4.3s4.75-1.57,7.58-1.57
				c3.05,0,5.71,0.54,7.96,1.61c2.25,1.07,4.12,2.52,5.6,4.35c1.48,1.83,2.58,3.96,3.31,6.4c0.73,2.44,1.09,5.03,1.09,7.77
				c0,1.62-0.15,3.25-0.45,4.87c-0.3,1.62-0.77,3.18-1.4,4.68c-0.63,1.49-1.43,2.89-2.4,4.19c-0.97,1.3-2.13,2.42-3.46,3.37
				c-1.34,0.95-2.86,1.7-4.57,2.25C462.61,565.32,460.7,565.6,458.59,565.6z M459.13,563.58c1.98,0,3.71-0.44,5.19-1.33
				c1.48-0.89,2.71-2.1,3.7-3.65s1.73-3.37,2.23-5.47s0.75-4.36,0.75-6.79c0-2.8-0.26-5.37-0.78-7.7c-0.52-2.33-1.31-4.34-2.38-6.02
				c-1.07-1.68-2.41-2.99-4.03-3.92c-1.62-0.93-3.54-1.4-5.74-1.4c-2.09,0-3.89,0.48-5.39,1.43c-1.5,0.95-2.72,2.22-3.68,3.79
				c-0.95,1.58-1.65,3.4-2.09,5.46s-0.66,4.21-0.66,6.45c0,2.74,0.25,5.28,0.76,7.62c0.51,2.33,1.29,4.35,2.35,6.06
				c1.06,1.71,2.39,3.05,4,4.02C454.99,563.1,456.9,563.58,459.13,563.58z"/>
			
				<radialGradient id="SVGID_00000101809598282736270040000017646871777299586977_" cx="582.684" cy="605.6712" r="199.7269" gradientUnits="userSpaceOnUse">
				<stop  offset="0.1397" style="stop-color:#D1B3A3"/>
				<stop  offset="0.7792" style="stop-color:#9D7564"/>
			</radialGradient>
			<path style="fill:url(#SVGID_00000101809598282736270040000017646871777299586977_);" d="M482.4,529.82
				c-0.15-0.35-0.37-0.7-0.65-1.04s-0.62-0.55-1.02-0.64l-2.6-0.67v-1.32h13.89v1.32l-4.86,0.92l10.21,26.01l1.44,3.86l11.11-29.76
				l-4.81-1.04v-1.32h11v1.32l-2.43,0.67c-0.38,0.09-0.71,0.31-1,0.64c-0.29,0.34-0.51,0.68-0.67,1.04l-11.31,29.12l-3.22,6.36h-1.1
				L482.4,529.82z"/>
			
				<radialGradient id="SVGID_00000038378499907330519760000007556520087305000583_" cx="582.684" cy="605.6712" r="199.7269" gradientUnits="userSpaceOnUse">
				<stop  offset="0.1397" style="stop-color:#D1B3A3"/>
				<stop  offset="0.7792" style="stop-color:#9D7564"/>
			</radialGradient>
			<path style="fill:url(#SVGID_00000038378499907330519760000007556520087305000583_);" d="M517.31,563.42l3.59-0.76
				c0.38-0.09,0.69-0.29,0.95-0.59c0.25-0.3,0.38-0.65,0.38-1.06v-31.14c0-0.43-0.13-0.79-0.38-1.09c-0.25-0.3-0.57-0.49-0.95-0.59
				l-3.59-0.73v-1.32h28.39v9.04h-1.58l-2.01-5.96c-0.09-0.28-0.23-0.51-0.4-0.7c-0.17-0.19-0.42-0.28-0.76-0.28h-13.63v15.32h8.94
				c0.38,0,0.65-0.08,0.82-0.25c0.17-0.17,0.3-0.38,0.4-0.64l1.61-4.59h1.39v13.13h-1.39l-1.61-4.54c-0.09-0.3-0.23-0.54-0.4-0.71
				c-0.17-0.18-0.44-0.27-0.82-0.27h-8.94v16.91h16.06c0.34,0,0.59-0.09,0.76-0.27c0.17-0.18,0.3-0.42,0.4-0.71l1.89-6.75h1.58v9.86
				h-30.71V563.42z"/>
			
				<radialGradient id="SVGID_00000181060737083065365150000012208606527610049953_" cx="582.684" cy="605.6712" r="199.7269" gradientUnits="userSpaceOnUse">
				<stop  offset="0.1397" style="stop-color:#D1B3A3"/>
				<stop  offset="0.7792" style="stop-color:#9D7564"/>
			</radialGradient>
			<path style="fill:url(#SVGID_00000181060737083065365150000012208606527610049953_);" d="M549.18,563.42l2.43-0.7
				c0.38-0.11,0.71-0.32,1-0.63c0.29-0.31,0.51-0.65,0.66-1.02L564.51,532l3.42-6.44h1.1l13.86,35.5c0.15,0.37,0.37,0.71,0.66,1.02
				s0.63,0.52,1,0.63l2.43,0.7v1.32h-13.77v-1.32l4.92-0.92l-4.69-12.1h-13.69l-4.38,11.98l4.81,1.04v1.32h-11V563.42z
				 M572.57,548.27l-4.64-11.82l-1.41-3.78h-0.03l-5.85,15.6H572.57z"/>
			
				<radialGradient id="SVGID_00000085951743588087390250000013442706877518257341_" cx="582.684" cy="605.6712" r="199.7269" gradientUnits="userSpaceOnUse">
				<stop  offset="0.1397" style="stop-color:#D1B3A3"/>
				<stop  offset="0.7792" style="stop-color:#9D7564"/>
			</radialGradient>
			<path style="fill:url(#SVGID_00000085951743588087390250000013442706877518257341_);" d="M587.97,563.42l3.59-0.76
				c0.38-0.09,0.69-0.29,0.95-0.59c0.26-0.3,0.38-0.65,0.38-1.06v-31.14c0-0.43-0.13-0.79-0.38-1.09c-0.25-0.3-0.57-0.49-0.95-0.59
				l-3.59-0.73v-1.32h15.13v1.32l-3.76,0.73c-0.38,0.07-0.7,0.27-0.96,0.59c-0.27,0.32-0.4,0.68-0.4,1.09v32.73h14.31
				c0.19,0,0.35-0.05,0.49-0.15c0.14-0.1,0.26-0.23,0.35-0.39c0.09-0.16,0.17-0.32,0.23-0.49s0.1-0.32,0.14-0.45l2.15-7.39h1.5v11
				h-29.19V563.42z"/>
			
				<radialGradient id="SVGID_00000124872350137233115590000016161264550499737021_" cx="582.684" cy="605.6712" r="199.7269" gradientUnits="userSpaceOnUse">
				<stop  offset="0.1397" style="stop-color:#D1B3A3"/>
				<stop  offset="0.7792" style="stop-color:#9D7564"/>
			</radialGradient>
			<path style="fill:url(#SVGID_00000124872350137233115590000016161264550499737021_);" d="M668.61,557.2v2.35
				c-0.77,0.65-1.67,1.33-2.69,2.03c-1.02,0.7-2.13,1.34-3.32,1.93c-1.2,0.59-2.46,1.07-3.8,1.46c-1.34,0.38-2.71,0.57-4.1,0.57
				c-2.85,0-5.42-0.46-7.71-1.39c-2.29-0.92-4.25-2.25-5.87-3.98c-1.62-1.73-2.87-3.83-3.75-6.3c-0.88-2.47-1.32-5.26-1.32-8.36
				c0-2.99,0.48-5.72,1.43-8.2c0.95-2.48,2.27-4.61,3.95-6.38c1.68-1.77,3.65-3.15,5.92-4.13c2.27-0.98,4.74-1.47,7.4-1.47
				c0.92,0,1.94,0.07,3.05,0.2c1.11,0.13,2.22,0.3,3.34,0.5c1.11,0.21,2.18,0.44,3.2,0.7c1.02,0.26,1.9,0.52,2.66,0.78v8.93h-1.5
				l-1.81-4.9c-0.09-0.35-0.25-0.62-0.45-0.78c-0.21-0.17-0.44-0.33-0.71-0.48c-0.6-0.34-1.28-0.65-2.04-0.95
				c-0.75-0.3-1.55-0.56-2.38-0.8s-1.66-0.42-2.5-0.55c-0.84-0.13-1.64-0.2-2.42-0.2c-1.68,0-3.22,0.35-4.64,1.05
				c-1.41,0.7-2.63,1.75-3.65,3.15c-1.02,1.4-1.81,3.15-2.38,5.25s-0.85,4.55-0.85,7.35c0,5.84,1.25,10.23,3.76,13.16
				c2.51,2.93,6.1,4.4,10.77,4.4c1.55,0,2.92-0.16,4.13-0.49c1.21-0.33,2.29-0.74,3.25-1.23c0.96-0.49,1.81-1.03,2.53-1.61
				c0.73-0.58,1.38-1.12,1.97-1.62H668.61z"/>
			
				<radialGradient id="SVGID_00000098925646029318560120000014035591907646563239_" cx="582.684" cy="605.6712" r="199.7269" gradientUnits="userSpaceOnUse">
				<stop  offset="0.1397" style="stop-color:#D1B3A3"/>
				<stop  offset="0.7792" style="stop-color:#9D7564"/>
			</radialGradient>
			<path style="fill:url(#SVGID_00000098925646029318560120000014035591907646563239_);" d="M671.97,563.42l3.59-0.76
				c0.38-0.09,0.69-0.29,0.95-0.59c0.25-0.3,0.38-0.65,0.38-1.06v-31.14c0-0.43-0.13-0.79-0.38-1.09c-0.25-0.3-0.57-0.49-0.95-0.59
				l-3.59-0.73v-1.32h15.13v1.32l-3.76,0.73c-0.38,0.07-0.7,0.27-0.96,0.59c-0.26,0.32-0.4,0.68-0.4,1.09v32.73h14.31
				c0.19,0,0.35-0.05,0.49-0.15c0.14-0.1,0.26-0.23,0.35-0.39s0.17-0.32,0.23-0.49s0.1-0.32,0.14-0.45l2.15-7.39h1.5v11h-29.18
				V563.42z"/>
			
				<radialGradient id="SVGID_00000063634229370421149760000003864012725769164190_" cx="582.684" cy="605.6712" r="199.7269" gradientUnits="userSpaceOnUse">
				<stop  offset="0.1397" style="stop-color:#D1B3A3"/>
				<stop  offset="0.7792" style="stop-color:#9D7564"/>
			</radialGradient>
			<path style="fill:url(#SVGID_00000063634229370421149760000003864012725769164190_);" d="M706.07,529.87
				c0-0.43-0.13-0.79-0.4-1.09c-0.26-0.3-0.58-0.49-0.96-0.59l-3.59-0.73v-1.32h14.96v1.32l-3.59,0.73
				c-0.38,0.09-0.69,0.29-0.95,0.6c-0.25,0.31-0.38,0.67-0.38,1.08v22.88c0,0.65,0.05,1.36,0.16,2.11c0.1,0.76,0.29,1.5,0.57,2.24
				s0.65,1.45,1.12,2.13c0.47,0.68,1.08,1.29,1.82,1.82c0.74,0.53,1.64,0.95,2.7,1.26s2.29,0.46,3.71,0.46
				c1.43,0,2.69-0.16,3.78-0.48c1.08-0.32,2.02-0.74,2.81-1.27c0.79-0.53,1.45-1.14,1.98-1.82c0.53-0.68,0.95-1.39,1.27-2.13
				c0.32-0.74,0.55-1.47,0.68-2.21c0.13-0.74,0.2-1.42,0.2-2.06v-22.76c0-0.43-0.13-0.79-0.38-1.08c-0.25-0.29-0.57-0.48-0.95-0.57
				l-3.59-0.92v-1.32h12.27v1.32l-3.59,0.92c-0.38,0.09-0.69,0.29-0.95,0.59c-0.25,0.3-0.38,0.65-0.38,1.06v23.1
				c0,1.51-0.22,2.87-0.65,4.06c-0.43,1.19-1.02,2.25-1.75,3.18s-1.58,1.72-2.54,2.38c-0.96,0.66-1.97,1.2-3.01,1.62
				c-1.05,0.42-2.1,0.73-3.15,0.92c-1.06,0.2-2.05,0.29-2.97,0.29c-2.34,0-4.39-0.31-6.17-0.94c-1.77-0.63-3.26-1.47-4.45-2.52
				s-2.1-2.26-2.7-3.63c-0.6-1.36-0.91-2.77-0.91-4.23V529.87z"/>
			
				<radialGradient id="SVGID_00000111889453177837355980000016922032909280617119_" cx="582.684" cy="605.6712" r="199.7269" gradientUnits="userSpaceOnUse">
				<stop  offset="0.1397" style="stop-color:#D1B3A3"/>
				<stop  offset="0.7792" style="stop-color:#9D7564"/>
			</radialGradient>
			<path style="fill:url(#SVGID_00000111889453177837355980000016922032909280617119_);" d="M742.34,563.42l3.59-0.76
				c0.38-0.09,0.69-0.29,0.95-0.59c0.25-0.3,0.38-0.65,0.38-1.06v-31.14c0-0.43-0.13-0.79-0.38-1.09c-0.25-0.3-0.57-0.49-0.95-0.59
				l-3.59-0.73v-1.32h14.08c2.83,0,5.15,0.24,6.97,0.71s3.25,1.11,4.28,1.9s1.75,1.7,2.15,2.73c0.4,1.03,0.59,2.09,0.59,3.19
				c0,1.21-0.2,2.33-0.59,3.36c-0.4,1.03-0.96,1.95-1.7,2.77c-0.74,0.82-1.62,1.53-2.66,2.11c-1.04,0.59-2.19,1.05-3.45,1.39
				c1.51,0.06,2.93,0.31,4.26,0.77c1.33,0.46,2.49,1.08,3.48,1.88c0.99,0.79,1.77,1.75,2.35,2.87s0.86,2.38,0.86,3.78
				c0,1.48-0.21,2.77-0.64,3.89c-0.42,1.12-1.01,2.09-1.75,2.91c-0.75,0.82-1.62,1.51-2.63,2.06c-1.01,0.55-2.09,0.99-3.25,1.33
				s-2.37,0.57-3.63,0.71c-1.26,0.14-2.53,0.21-3.79,0.21h-14.93V563.42z M754.93,543.93c1.88,0,3.47-0.17,4.76-0.5
				s2.33-0.82,3.12-1.44c0.79-0.62,1.36-1.39,1.71-2.3c0.35-0.91,0.52-1.93,0.52-3.07c0-1.49-0.19-2.77-0.58-3.84
				c-0.39-1.06-0.97-1.94-1.74-2.62c-0.77-0.68-1.74-1.18-2.9-1.5s-2.51-0.48-4.06-0.48h-3.42v15.74H754.93z M758.32,562.66
				c3.02,0,5.28-0.62,6.79-1.85c1.51-1.23,2.26-3.25,2.26-6.05c0-1.64-0.21-3.03-0.62-4.16c-0.41-1.13-1.06-2.04-1.92-2.74
				c-0.87-0.7-1.97-1.21-3.32-1.53c-1.35-0.32-2.95-0.48-4.79-0.48h-4.36v16.8H758.32z"/>
		</g>
	</g>
</g>
</svg>
